PathFileType	4	(X/Y/Z)	./resultDataOpenSim/trcMotMarkerGrf/sub06/qtm-15-05.trc
DataRate	CameraRate	NumFrames	NumMarkers	Units	OrigDataRate	OrigDataStartFrame	OrigNumFrames
250.000000	250.000000	13	24	m	250.000000	449	513
Frame#	Time	L.Toe.Tip			R.Toe.Tip			L.Ankle.Lat			R.Ankle.Lat			L.Ankle.Med			R.Ankle.Med			L.Heel			R.Heel			L.Knee.Lat			R.Knee.Lat			L.Knee.Med			R.Knee.Med			L.Thigh.Upper			R.Thigh.Upper			L.ASIS			R.ASIS			V.Sacral			L.Acromium			R.Acromium			C7			L.Elbow			R.Elbow			L.Wrist.Lat			R.Wrist.Lat
		X1	Y1	Z1	X2	Y2	Z2	X3	Y3	Z3	X4	Y4	Z4	X5	Y5	Z5	X6	Y6	Z6	X7	Y7	Z7	X8	Y8	Z8	X9	Y9	Z9	X10	Y10	Z10	X11	Y11	Z11	X12	Y12	Z12	X13	Y13	Z13	X14	Y14	Z14	X15	Y15	Z15	X16	Y16	Z16	X17	Y17	Z17	X18	Y18	Z18	X19	Y19	Z19	X20	Y20	Z20	X21	Y21	Z21	X22	Y22	Z22	X23	Y23	Z23	X24	Y24	Z24

449	1.792	1.788782	0.033497434	-0.01287043	1.0654724	0.051583034	0.069325151	1.6669479	0.065967949	-0.045882934	1.0654508	0.18114896	0.13375264	1.6592797	0.077033595	0.041408317	1.1080515	0.18282638	0.054960607	1.5862849	0.037142976	-0.0086653135	1.0460506	0.23595569	0.076637946	1.7141271	0.44289047	-0.053550422	1.3990681	0.38475578	0.18762083	1.6977738	0.43127367	0.069464489	1.4032753	0.36418862	0.057154563	1.5372297	0.79011718	-0.13836986	1.4536041	0.74096429	0.19593855	1.5930147	0.82879862	-0.077639955	1.5482094	0.79879048	0.16028858	1.383406	0.89367438	0.025695395	1.5263602	1.2898052	-0.16128154	1.5166176	1.2898976	0.20104371	1.4383995	1.3328209	0.017517868	1.3998327	1.0084448	-0.21083766	1.5822243	0.97396594	0.29478888	1.4388957	0.77821669	-0.28126605	1.8032913	1.0405261	0.1887714
450	1.796	1.7887005	0.033467873	-0.013031719	1.0728362	0.054081919	0.0724318	1.6670553	0.06571936	-0.045924128	1.0755999	0.18492498	0.13508751	1.6595286	0.076953251	0.041351655	1.1181252	0.18545768	0.05621745	1.5862342	0.037162786	-0.0086539969	1.057137	0.23979451	0.077402232	1.7172512	0.44149527	-0.054514947	1.4105021	0.38412308	0.18970033	1.6996863	0.43114361	0.068530564	1.4152085	0.36325515	0.059087533	1.5425597	0.79074302	-0.13872002	1.4595572	0.74190504	0.19554164	1.5980713	0.82958314	-0.078159669	1.553861	0.79964905	0.15990318	1.3884915	0.89418115	0.025670225	1.5317324	1.2902064	-0.1610543	1.5225825	1.2903103	0.20114973	1.4438565	1.3333218	0.017872128	1.4074541	1.0073641	-0.21062364	1.5855498	0.97311299	0.29458979	1.4496441	0.77740605	-0.28072375	1.8077254	1.0346426	0.18964982
451	1.8	1.7886335	0.0334408	-0.013201413	1.0809011	0.056673616	0.075636338	1.6670963	0.065478057	-0.046013025	1.0860957	0.18873602	0.13636678	1.6597159	0.076961147	0.041261129	1.1284801	0.18810906	0.057421668	1.5861992	0.037230914	-0.0087442694	1.0683849	0.24346328	0.07806048	1.7201342	0.44004878	-0.05553094	1.4220984	0.38370193	0.19175782	1.701358	0.43102538	0.067527671	1.4270227	0.36286771	0.060998802	1.5480686	0.79146265	-0.13902458	1.4651734	0.74301906	0.19513469	1.6031424	0.83039526	-0.078587847	1.5594308	0.80078925	0.15963969	1.3932665	0.89472572	0.025469239	1.5370655	1.2907648	-0.16079799	1.5284016	1.2908581	0.2012644	1.4492276	1.3339056	0.018221611	1.4150524	1.0064223	-0.21037145	1.588852	0.97252039	0.29441124	1.4605584	0.77682126	-0.2801104	1.8119958	1.0286898	0.19058204
452	1.804	1.788581	0.033420845	-0.013362974	1.089601	0.059422579	0.078980049	1.6670782	0.065256481	-0.046161468	1.0969211	0.19254064	0.13760847	1.6598564	0.0770404	0.041147473	1.1391104	0.19078268	0.058600243	1.5861845	0.037391434	-0.0090109134	1.0797261	0.2469682	0.078672924	1.7227815	0.43857934	-0.056535347	1.4338159	0.3835171	0.19378661	1.7028078	0.43092123	0.066472495	1.4387421	0.36298774	0.062924685	1.5537035	0.79226242	-0.13926946	1.4706975	0.74426061	0.19479975	1.6082266	0.83123288	-0.078929338	1.5648994	0.80217095	0.15949341	1.397933	0.89535354	0.025217811	1.5423623	1.2914697	-0.16051438	1.5340666	1.2915391	0.20139944	1.4545359	1.3345986	0.018564114	1.4226196	1.0056203	-0.21008259	1.5914782	0.97241678	0.29408583	1.4716288	0.77646747	-0.27943741	1.8160777	1.0226647	0.19157542
453	1.808	1.7885353	0.03340841	-0.013508479	1.0989981	0.062345647	0.082489452	1.6670295	0.065047501	-0.046342698	1.1080671	0.19628548	0.13885606	1.6599722	0.077160887	0.041022272	1.1500023	0.1934785	0.059772655	1.5861795	0.037620697	-0.0093948036	1.0910822	0.25033865	0.079315416	1.7252061	0.43711174	-0.057468438	1.4455959	0.38359329	0.19577356	1.7040559	0.43083327	0.065382059	1.4503492	0.36355682	0.064804497	1.5593461	0.79312541	-0.13943458	1.4763956	0.74559839	0.19459366	1.6133164	0.83210043	-0.079191175	1.570251	0.8037473	0.15945807	1.4026654	0.8961317	0.024963684	1.5476429	1.2923337	-0.16021004	1.5395791	1.2923528	0.20156218	1.4598056	1.3354135	0.018898395	1.4301487	1.0049628	-0.20976716	1.5928884	0.97290496	0.29346884	1.4828518	0.77634814	-0.27871058	1.8199587	1.0165847	0.19264556
454	1.812	1.7884909	0.033401851	-0.013636382	1.1091519	0.0653514	0.086100488	1.6669753	0.064843184	-0.046518362	1.1195484	0.19991818	0.14017978	1.6600763	0.077299885	0.040895976	1.1611376	0.19618247	0.060947586	1.5861666	0.037839045	-0.0097341364	1.1024067	0.25359152	0.080040082	1.727449	0.43568395	-0.058275561	1.4573861	0.3839477	0.19770113	1.7051232	0.43076357	0.064273383	1.4618235	0.364505	0.066526909	1.5648956	0.79403757	-0.13950533	1.4821517	0.74703655	0.19445996	1.6184043	0.83300462	-0.07937805	1.5754819	0.80547569	0.15952412	1.4075013	0.89709756	0.024693542	1.5529372	1.2933825	-0.15989489	1.5449532	1.2932989	0.20175862	1.4650585	1.3363552	0.019218433	1.4376408	1.0044527	-0.20943731	1.5933502	0.97379178	0.29262802	1.4942217	0.77646561	-0.27792604	1.8236417	1.0104938	0.19381202
455	1.816	1.788449	0.033400849	-0.013749662	1.1200575	0.068320667	0.089727462	1.6669379	0.064662287	-0.046666819	1.1313606	0.20340726	0.14163121	1.660169	0.077447187	0.040777063	1.1725027	0.19887065	0.062132346	1.5861357	0.038000323	-0.0099327561	1.1137524	0.25669303	0.080777929	1.7295792	0.43435483	-0.058923381	1.4691463	0.38458391	0.19955124	1.7060297	0.43071423	0.063163211	1.4731887	0.36573779	0.068074831	1.5703171	0.79499198	-0.1394931	1.4870999	0.74858562	0.1941831	1.6234697	0.83394935	-0.079492258	1.5805998	0.807321	0.15967616	1.4123801	0.89822695	0.024374413	1.5582477	1.2946025	-0.15957455	1.5501987	1.2943737	0.2019974	1.4703098	1.3374273	0.019519711	1.4451033	1.0040867	-0.20910051	1.5937481	0.97473192	0.29180064	1.5057151	0.77681684	-0.27707306	1.8271344	1.004451	0.19508776
456	1.82	1.7884121	0.033405609	-0.013853661	1.131672	0.071188298	0.093299512	1.6669327	0.064539738	-0.046789228	1.1433523	0.20675576	0.14317168	1.6602572	0.077599607	0.040669584	1.1840885	0.20152212	0.063340928	1.5860898	0.038123313	-0.010016276	1.1252371	0.25956923	0.081368634	1.7316599	0.43319257	-0.059414964	1.4808305	0.38548928	0.20130894	1.7067949	0.43068736	0.062068049	1.4845255	0.36713763	0.069599992	1.5756419	0.79598207	-0.13944555	1.4901084	0.75022462	0.19352192	1.6284855	0.83493589	-0.079534271	1.5856178	0.80925432	0.15989922	1.417257	0.89946332	0.02398123	1.5635476	1.295936	-0.15924828	1.5553173	1.2955676	0.20228423	1.4755685	1.3386247	0.019803405	1.4525423	1.0038577	-0.20875917	1.5945584	0.97555751	0.29114038	1.5172938	0.77739394	-0.27613994	1.830437	0.99850456	0.19647251
457	1.824	1.7883813	0.033414368	-0.013952051	1.1439346	0.073928807	0.096762037	1.6669435	0.064480277	-0.04689312	1.1552405	0.20998263	0.14468843	1.660362	0.077752985	0.040572577	1.1958815	0.20412365	0.0645878	1.586041	0.038237816	-0.010037777	1.1368983	0.26217311	0.081758444	1.7337115	0.43225099	-0.059779884	1.492402	0.38664283	0.20296943	1.7074378	0.43068511	0.061004305	1.4959445	0.3686016	0.071332142	1.5809399	0.79699617	-0.13941873	1.4912184	0.7519128	0.19251197	1.6334451	0.83596651	-0.079510859	1.5905511	0.81125233	0.16018687	1.4221358	0.9007836	0.023521561	1.5688159	1.2973409	-0.15891154	1.5603216	1.2968646	0.20261636	1.480838	1.3399347	0.020073167	1.459955	1.003757	-0.2084155	1.5955446	0.97633943	0.29061963	1.5289286	0.77818895	-0.27512412	1.8335426	0.99267176	0.19795808
458	1.828	1.7883541	0.033423753	-0.01404391	1.1567686	0.076518474	0.10008491	1.6669306	0.064450956	-0.046982884	1.1668474	0.21308955	0.14609981	1.6604883	0.077898259	0.040485298	1.2078575	0.20666418	0.065878336	1.5860002	0.038347234	-0.01001046	1.1486423	0.26451989	0.082083967	1.7357041	0.43154876	-0.060050773	1.5038811	0.38802753	0.20454816	1.7079773	0.4307096	0.059988332	1.5075236	0.37008941	0.073382399	1.5862515	0.79802076	-0.13943113	1.4922666	0.75360571	0.1915815	1.6383864	0.83704635	-0.079452208	1.5954189	0.81329572	0.16053415	1.4270254	0.90221368	0.023037645	1.5740552	1.2988153	-0.15855857	1.5652407	1.2982486	0.20298972	1.486118	1.3413473	0.020334594	1.467332	1.0037742	-0.20807628	1.5964351	0.9771877	0.29014209	1.540611	0.7791959	-0.27403089	1.8364445	0.98694536	0.19953984
459	1.832	1.7883263	0.03343072	-0.014124916	1.1700994	0.078927946	0.10327039	1.6668758	0.064426838	-0.047068491	1.1782652	0.21606946	0.14739245	1.6605637	0.078018181	0.040420213	1.2199886	0.20912885	0.067208714	1.5859669	0.038443826	-0.0099316321	1.1603524	0.26664575	0.082515156	1.7375812	0.43106353	-0.060248662	1.515333	0.38963274	0.20607491	1.7084321	0.43076284	0.059036339	1.5192333	0.37164416	0.075579636	1.5915298	0.79904482	-0.13946464	1.4952481	0.75525799	0.19118534	1.643371	0.83817933	-0.079407149	1.6002596	0.81536781	0.16093093	1.4319289	0.90377615	0.022575625	1.5792783	1.3003678	-0.15818695	1.5701016	1.2997135	0.20340893	1.4914043	1.3428543	0.020596714	1.474673	1.0038977	-0.2077492	1.59739	0.97812686	0.28965118	1.5523451	0.78041222	-0.27286215	1.8391356	0.98131287	0.20121795
460	1.836	1.7882935	0.033433925	-0.01419111	1.183865	0.081133149	0.10636766	1.6667934	0.064410871	-0.047162868	1.1897956	0.21892868	0.14858231	1.6603786	0.078082814	0.04041911	1.2322508	0.21150309	0.068569593	1.5859303	0.038529072	-0.0098382285	1.1719745	0.26856266	0.083118589	1.7392933	0.43074317	-0.060380326	1.5267824	0.39144915	0.20756593	1.7088205	0.43084672	0.058164338	1.5309481	0.37335622	0.077565474	1.5966665	0.80005943	-0.13949896	1.5004024	0.75686918	0.19136576	1.6484136	0.8393618	-0.079406072	1.6051701	0.81745378	0.16137519	1.4368469	0.90543966	0.022142812	1.5844932	1.3019993	-0.15780205	1.5749264	1.3012659	0.20388762	1.4966849	1.3444402	0.020868023	1.4819924	1.0041184	-0.20743483	1.5988323	0.97911918	0.28916828	1.5641354	0.78183725	-0.27161311	1.8416048	0.97576532	0.20298783
461	1.84	1.7882548	0.033434073	-0.014241343	1.1979968	0.083120366	0.10947686	1.6667025	0.064410567	-0.047264311	1.2017283	0.22164418	0.14971706	1.6596609	0.078065435	0.040541569	1.2446253	0.21377801	0.069949378	1.5858769	0.038608882	-0.009819174	1.1835032	0.27026142	0.083892539	1.7408179	0.430527	-0.060443075	1.5381794	0.3934665	0.2090103	1.7091611	0.43096318	0.057388439	1.5425536	0.37527944	0.079133062	1.6015816	0.80105281	-0.13952722	1.5065215	0.75850543	0.19181737	1.6534553	0.84058283	-0.079443201	1.6102935	0.81954279	0.16187315	1.441775	0.90714195	0.021718637	1.5896991	1.3037076	-0.15741268	1.5797409	1.3029111	0.20443918	1.5019426	1.3460823	0.021149831	1.4892999	1.0044325	-0.20712385	1.6011351	0.98011803	0.28878796	1.5759799	0.78346538	-0.27027552	1.843841	0.97030112	0.20483889
